<?xml version="1.0" standalone="no"?>
<!DOCTYPE svg PUBLIC "-//W3C//DTD SVG 20010904//EN"
 "http://www.w3.org/TR/2001/REC-SVG-20010904/DTD/svg10.dtd">
<svg version="1.0" xmlns="http://www.w3.org/2000/svg"
 width="512.000000pt" height="512.000000pt" viewBox="0 0 512.000000 512.000000"
 preserveAspectRatio="xMidYMid meet">

<g transform="translate(0.000000,512.000000) scale(0.100000,-0.100000)"
fill="#FFCA54" stroke="none">
<path d="M2103 4617 c-386 -385 -423 -425 -423 -455 0 -22 8 -41 25 -57 24
-25 27 -25 200 -25 l175 0 -2 -366 -3 -366 -71 -18 c-97 -25 -200 -70 -286
-126 -70 -45 -199 -165 -251 -234 l-27 -35 0 293 0 292 175 0 c173 0 176 0
200 25 17 16 25 35 25 57 0 30 -37 70 -423 455 -394 395 -425 423 -457 423
-32 0 -63 -28 -457 -423 -386 -385 -423 -425 -423 -455 0 -22 8 -41 25 -57 24
-25 27 -25 200 -25 l175 0 0 -360 0 -360 -175 0 c-173 0 -176 0 -200 -25 l-25
-24 0 -1311 0 -1311 25 -24 24 -25 1511 0 1511 0 24 25 c18 17 25 35 25 63 l0
39 83 -33 c100 -40 216 -71 317 -84 41 -5 281 -10 533 -10 l458 0 24 25 c24
23 25 28 25 176 l0 152 64 68 c315 333 419 848 261 1289 -58 162 -157 323
-269 440 l-56 58 0 616 0 616 175 0 c173 0 176 0 200 25 17 16 25 35 25 57 0
30 -37 70 -423 455 -394 395 -425 423 -457 423 -32 0 -63 -28 -457 -423 -386
-385 -423 -425 -423 -455 0 -22 8 -41 25 -57 24 -25 27 -25 200 -25 l175 0 0
-440 0 -439 -37 -6 c-177 -26 -294 -58 -435 -120 -14 -6 -18 -2 -18 17 0 68
-63 251 -120 348 l-30 51 0 574 0 575 175 0 c173 0 176 0 200 25 17 16 25 35
25 57 0 30 -37 70 -423 455 -394 395 -425 423 -457 423 -32 0 -63 -28 -457
-423z m762 -77 l300 -300 -118 0 c-112 0 -119 -1 -142 -25 l-25 -24 0 -535 0
-535 -73 52 c-154 111 -369 187 -529 187 l-38 0 0 415 0 416 -25 24 c-23 24
-30 25 -142 25 l-118 0 300 300 c165 165 302 300 305 300 3 0 140 -135 305
-300z m-1600 -560 l300 -300 -118 0 c-112 0 -119 -1 -142 -25 l-25 -24 0 -416
0 -415 -320 0 -320 0 0 415 0 416 -25 24 c-23 24 -30 25 -142 25 l-118 0 300
300 c165 165 302 300 305 300 3 0 140 -135 305 -300z m3200 0 l300 -300 -118
0 c-112 0 -119 -1 -142 -25 l-25 -24 0 -607 0 -606 -32 21 c-62 41 -183 99
-271 130 -76 26 -162 45 -304 67 l-33 5 0 495 0 495 -25 24 c-23 24 -30 25
-142 25 l-118 0 300 300 c165 165 302 300 305 300 3 0 140 -135 305 -300z
m-2035 -804 c208 -56 367 -170 481 -344 239 -364 132 -861 -238 -1102 -116
-76 -239 -117 -385 -127 -348 -24 -680 195 -798 524 -126 355 2 738 316 943
83 54 213 105 306 119 83 13 249 6 318 -13z m-1126 -561 c-3 -14 -9 -49 -13
-78 l-6 -52 -522 -3 -523 -2 0 80 0 80 535 0 535 0 -6 -25z m2601 -145 c291
-42 550 -188 728 -411 188 -235 278 -555 237 -844 -28 -197 -117 -404 -235
-552 -329 -410 -905 -540 -1367 -307 l-68 34 0 541 0 540 -25 24 -24 25 -258
0 -258 0 90 53 c65 38 117 79 190 152 163 164 240 319 280 568 6 38 9 40 98
82 186 88 412 123 612 95z m-2621 -172 c3 -13 8 -41 11 -63 3 -22 8 -48 11
-57 5 -17 -25 -18 -530 -18 l-536 0 0 80 0 80 520 0 520 0 4 -22z m127 -378
l47 -80 -609 0 -609 0 0 80 0 80 563 0 562 -1 46 -79z m252 -286 c34 -25 82
-57 107 -70 25 -13 52 -28 60 -33 10 -7 -236 -11 -787 -11 l-803 0 0 80 0 80
681 0 681 0 61 -46z m-383 -354 l0 -80 -520 0 -520 0 0 80 0 80 520 0 520 0 0
-80z m1760 0 l0 -80 -800 0 -800 0 0 80 0 80 800 0 800 0 0 -80z m-1760 -320
l0 -80 -520 0 -520 0 0 80 0 80 520 0 520 0 0 -80z m1760 0 l0 -80 -800 0
-800 0 0 80 0 80 800 0 800 0 0 -80z m-1760 -320 l0 -80 -520 0 -520 0 0 80 0
80 520 0 520 0 0 -80z m1760 0 l0 -80 -800 0 -800 0 0 80 0 80 800 0 800 0 0
-80z m-1760 -320 l0 -80 -520 0 -520 0 0 80 0 80 520 0 520 0 0 -80z m1760 0
l0 -80 -800 0 -800 0 0 80 0 80 800 0 800 0 0 -80z m1440 -50 c0 -29 -1 -30
-47 -30 l-48 0 45 30 c25 16 46 30 48 30 1 0 2 -13 2 -30z"/>
<path d="M2189 3021 c-19 -15 -25 -32 -29 -82 l-5 -62 -49 -14 c-65 -19 -146
-99 -169 -167 -29 -86 -20 -156 32 -238 44 -69 91 -95 241 -133 144 -36 175
-55 186 -110 8 -42 -17 -90 -59 -115 -24 -15 -50 -20 -107 -20 -87 1 -113 12
-150 66 -22 33 -32 39 -67 42 -34 3 -44 -1 -62 -24 -26 -33 -26 -54 -2 -102
34 -66 105 -121 179 -137 31 -6 32 -8 32 -61 0 -45 4 -59 25 -79 29 -30 74
-32 106 -6 19 15 25 32 29 81 l5 62 52 20 c60 22 122 79 155 140 17 33 22 60
23 113 0 60 -4 78 -31 125 -47 84 -97 114 -254 155 -145 37 -175 56 -186 113
-16 84 46 132 168 132 85 -1 111 -12 148 -66 22 -33 32 -39 67 -42 34 -3 44 1
62 24 25 32 26 54 5 97 -35 69 -107 126 -181 142 -32 6 -33 8 -33 61 0 45 -4
59 -25 79 -29 30 -74 32 -106 6z"/>
<path d="M3360 1907 c-49 -16 -133 -102 -148 -153 -28 -94 -8 -169 63 -239
102 -103 243 -101 338 5 93 103 90 228 -8 325 -70 71 -152 91 -245 62z m135
-172 c50 -49 15 -135 -55 -135 -41 0 -80 39 -80 80 0 41 39 80 80 80 19 0 40
-9 55 -25z"/>
<path d="M3703 1417 c-386 -385 -423 -425 -423 -455 0 -44 38 -82 82 -82 29 0
70 38 450 417 246 246 419 427 423 441 13 52 -30 102 -88 102 -15 0 -145 -123
-444 -423z"/>
<path d="M4000 1267 c-49 -16 -133 -102 -148 -153 -28 -94 -8 -169 63 -239
102 -103 243 -101 338 5 93 103 90 228 -8 325 -70 71 -152 91 -245 62z m135
-172 c50 -49 15 -135 -55 -135 -41 0 -80 39 -80 80 0 41 39 80 80 80 19 0 40
-9 55 -25z"/>
</g>
</svg>
