<?xml version="1.0" standalone="no"?>
<!DOCTYPE svg PUBLIC "-//W3C//DTD SVG 20010904//EN"
 "http://www.w3.org/TR/2001/REC-SVG-20010904/DTD/svg10.dtd">
<svg version="1.0" xmlns="http://www.w3.org/2000/svg"
 width="512.000000pt" height="512.000000pt" viewBox="0 0 512.000000 512.000000"
 preserveAspectRatio="xMidYMid meet">

<g transform="translate(0.000000,512.000000) scale(0.100000,-0.100000)"
fill="#FFCA54" stroke="none">
<path d="M4155 5109 c-415 -77 -703 -437 -682 -853 11 -220 93 -401 249 -553
332 -322 859 -308 1175 31 134 145 206 311 220 507 33 478 -355 885 -837 878
-41 -1 -97 -5 -125 -10z m357 -191 c197 -74 350 -232 411 -423 18 -59 22 -92
22 -210 -1 -126 -4 -147 -27 -207 -39 -104 -86 -175 -166 -255 -58 -58 -91
-82 -165 -117 -116 -56 -178 -70 -297 -69 -180 1 -332 64 -460 193 -129 128
-192 280 -193 460 -1 114 13 179 62 285 81 175 239 306 431 359 40 12 90 15
185 12 109 -2 141 -7 197 -28z"/>
<path d="M4210 4740 c0 -44 -3 -52 -23 -59 -42 -16 -90 -65 -113 -116 -42 -89
-28 -193 34 -265 43 -50 93 -77 163 -86 85 -10 126 -63 95 -123 -17 -31 -34
-41 -75 -41 -35 0 -67 23 -75 55 -6 24 -9 25 -86 25 -75 0 -80 -1 -80 -21 0
-70 56 -158 124 -194 34 -18 36 -23 36 -67 l0 -48 85 0 85 0 1 48 c0 45 2 48
47 77 68 44 106 110 110 194 3 57 0 73 -25 121 -38 71 -95 115 -170 129 -91
18 -107 25 -121 54 -26 55 12 117 71 117 34 0 67 -26 80 -62 5 -15 19 -18 88
-18 l82 0 -6 40 c-8 62 -52 128 -108 163 -48 29 -49 31 -49 78 l0 49 -85 0
-85 0 0 -50z"/>
<path d="M1277 4856 c-178 -51 -320 -200 -356 -374 -14 -69 -14 -306 0 -374
17 -78 50 -146 102 -211 l47 -57 0 -94 0 -95 -61 -103 c-34 -57 -67 -109 -74
-116 -9 -11 -39 53 -143 310 -120 296 -131 329 -135 398 -7 130 -70 228 -184
285 -50 25 -69 29 -143 29 -68 0 -94 -5 -132 -23 -71 -34 -130 -92 -163 -157
-25 -51 -29 -71 -30 -144 0 -66 5 -95 22 -131 20 -44 96 -131 135 -154 9 -6
223 -509 502 -1185 l486 -1175 -127 -317 c-91 -227 -131 -318 -142 -318 -9 0
-52 11 -96 25 -167 53 -276 41 -362 -38 -67 -62 -88 -107 -88 -197 0 -80 17
-125 70 -188 38 -45 88 -65 311 -126 595 -161 1113 -251 1734 -302 252 -21
1432 -32 1497 -15 182 49 240 286 101 418 -71 69 -52 67 -683 74 -313 4 -585
10 -602 14 l-33 8 0 438 0 439 162 -2 161 -3 212 -345 c195 -316 216 -347 255
-367 42 -22 52 -23 313 -23 184 0 283 4 311 12 51 16 119 82 136 133 20 61 9
148 -26 198 -43 61 -91 82 -258 116 -82 17 -149 31 -150 33 -2 2 -148 230
-327 508 -178 278 -341 525 -363 548 -22 24 -63 56 -91 70 -46 24 -62 27 -192
30 l-143 4 0 84 0 84 121 0 121 0 -4 93 c-3 77 -9 103 -35 159 -41 88 -113
160 -201 201 l-67 32 -232 3 -231 3 -52 122 c-110 257 -196 401 -339 570 -101
120 -104 140 -35 225 96 117 124 210 124 407 0 150 -16 231 -61 316 -55 103
-162 194 -274 234 -65 24 -223 29 -288 11z m206 -161 c97 -25 169 -84 219
-178 21 -39 23 -54 23 -222 0 -176 -1 -181 -27 -230 -32 -62 -104 -130 -166
-158 -61 -27 -188 -29 -247 -3 -104 45 -173 125 -201 236 -21 83 -15 281 11
352 19 53 88 136 139 167 35 22 125 49 166 50 14 1 51 -6 83 -14z m-1076 -422
c100 -47 116 -202 27 -272 -83 -65 -215 -35 -254 59 -18 43 -8 130 18 167 42
60 137 81 209 46z m275 -700 c69 -170 266 -653 438 -1075 l313 -768 398 0 399
0 0 -80 0 -80 -468 0 -469 0 -456 1103 c-250 606 -457 1108 -459 1116 -2 8 14
17 44 25 26 7 64 24 85 39 21 14 41 26 44 26 3 1 62 -137 131 -306z m718 152
c52 0 112 4 133 8 36 8 37 7 37 -20 0 -21 18 -48 68 -104 125 -139 201 -248
278 -401 35 -70 104 -225 104 -234 0 -3 -32 -4 -72 -2 l-71 3 -52 155 c-59
176 -81 224 -122 261 -105 98 -261 101 -367 8 -71 -63 -91 -107 -91 -209 l0
-85 134 -312 134 -313 359 0 358 0 0 -290 0 -290 -344 0 c-266 0 -345 3 -349
13 -3 6 -121 296 -262 642 -142 347 -260 639 -262 651 -3 13 35 85 111 213
l116 192 0 65 0 66 33 -9 c17 -4 75 -8 127 -8z m170 -440 c32 -17 37 -27 126
-297 l58 -177 436 -3 c482 -3 463 -1 538 -72 30 -27 62 -75 62 -91 0 -3 -262
-5 -583 -5 l-582 0 -107 253 c-59 138 -110 262 -113 275 -9 32 12 88 42 112
30 24 82 26 123 5z m990 -1780 l0 -976 -52 6 c-29 3 -68 8 -85 11 l-33 5 0
958 c0 527 3 961 7 964 3 4 42 7 85 7 l78 0 0 -975z m426 626 c23 -10 53 -34
66 -52 18 -24 516 -798 693 -1077 1 -2 342 -72 351 -72 1 0 10 -7 18 -16 20
-20 20 -48 0 -68 -13 -14 -52 -16 -267 -16 l-252 0 -330 535 -329 535 -103 0
-103 0 0 125 0 125 108 0 c83 0 116 -5 148 -19z m-92 -476 c25 -42 46 -78 46
-80 0 -3 -47 -5 -105 -5 l-105 0 0 80 0 80 59 0 58 0 47 -75z m-1367 -267 c-2
-7 -55 -152 -117 -323 -62 -171 -115 -314 -119 -318 -10 -10 -231 45 -231 58
0 5 53 142 117 302 l117 293 119 0 c91 0 118 -3 114 -12z m703 -403 c0 -375
-2 -415 -16 -415 -68 0 -736 118 -751 133 -5 5 227 660 244 690 2 4 121 7 264
7 l259 0 0 -415z m-1420 -290 c689 -202 1401 -321 2120 -355 118 -5 387 -10
598 -10 l383 0 24 -25 c33 -32 34 -83 1 -114 l-24 -23 -674 5 c-714 4 -791 8
-1224 62 -445 56 -841 136 -1314 266 -120 33 -150 45 -172 70 -40 42 -39 100
1 140 42 42 93 39 281 -16z"/>
<path d="M4790 2975 l0 -495 -85 0 -85 0 0 410 0 410 -80 0 -80 0 0 -410 0
-410 -85 0 -85 0 0 290 0 290 -80 0 -80 0 0 -290 0 -290 -85 0 -85 0 0 165 0
165 -80 0 -80 0 0 -165 0 -165 -85 0 -85 0 0 80 0 80 -80 0 -80 0 0 -80 0 -80
-85 0 -85 0 0 -85 0 -85 910 0 910 0 0 85 0 85 -85 0 -85 0 0 495 0 495 -80 0
-80 0 0 -495z"/>
</g>
</svg>
